<?xml version="1.0" encoding="utf-8"?>
<!-- Generator: Adobe Illustrator 26.0.0, SVG Export Plug-In . SVG Version: 6.00 Build 0)  -->
<svg version="1.1" id="Capa_1" xmlns="http://www.w3.org/2000/svg" xmlns:xlink="http://www.w3.org/1999/xlink" x="0px" y="0px"
	 viewBox="0 0 63 63" style="enable-background:new 0 0 63 63;" xml:space="preserve">
<style type="text/css">
	.st0{fill:#020203;}
</style>
<path class="st0" d="M63,63.06c-21,0-42,0-63,0c0-21,0-42,0-63c21,0,42,0,63,0C63,21.06,63,42.06,63,63.06z M23.73,14.82
	c0.12-0.02,0.17-0.03,0.23-0.03c0.91,0,1.82,0,2.73-0.01c0.2,0,0.26,0.09,0.26,0.27c0,0.46,0.02,0.91,0.02,1.36
	c0,0.25,0.1,0.36,0.35,0.36c0.85,0,1.7,0.01,2.55,0.03c0.23,0,0.31-0.09,0.31-0.31c-0.01-0.44,0.01-0.89-0.01-1.33
	c-0.01-0.26,0.06-0.38,0.35-0.38c0.86,0.01,1.73,0.01,2.59,0c0.22,0,0.28,0.09,0.28,0.29c0,0.42,0.01,0.84,0.01,1.26
	c0,0.28,0.11,0.42,0.42,0.42c0.84,0,1.68,0.02,2.52,0.05c0.22,0.01,0.32-0.08,0.32-0.31c0-0.47,0.02-0.93,0.02-1.4
	c0-0.24,0.07-0.32,0.32-0.32c0.79,0.01,1.59,0,2.38-0.01c0.46,0,0.47-0.01,0.47,0.45c0,1.95-0.02,3.9-0.01,5.84
	c0,0.34-0.1,0.61-0.32,0.85c-0.67,0.73-1.33,1.47-2.01,2.19c-0.22,0.24-0.31,0.5-0.28,0.82c0.23,2.8,0.43,5.6,0.66,8.41
	c0.39,4.75,0.78,9.51,1.17,14.26c0.1,1.21,0.18,2.42,0.28,3.63c0.03,0.39,0.12,0.45,0.42,0.3c1.12-0.55,2.28-1.03,3.33-1.69
	c3.79-2.35,6.69-5.53,8.55-9.6c1.71-3.75,2.35-7.67,1.85-11.77c-0.47-3.9-1.9-7.42-4.28-10.53c-2.97-3.87-6.79-6.52-11.49-7.85
	c-3.86-1.09-7.75-1.16-11.61-0.1c-5.49,1.5-9.8,4.66-12.88,9.47c-1.95,3.05-3.02,6.39-3.31,9.99c-0.23,2.91,0.14,5.75,1.04,8.52
	c0.82,2.53,2.07,4.84,3.75,6.91c2.21,2.73,4.93,4.81,8.13,6.26c0.41,0.18,0.83,0.33,1.3,0.51c0.03-0.2,0.05-0.33,0.06-0.45
	c0.31-3.75,0.61-7.51,0.92-11.26c0.4-5.01,0.8-10.02,1.19-15.03c0.02-0.23-0.08-0.52-0.22-0.69c-0.64-0.77-1.29-1.53-1.98-2.26
	c-0.27-0.28-0.36-0.57-0.36-0.94c0.01-1.93,0-3.85,0-5.77C23.73,15.1,23.73,14.97,23.73,14.82z M34.35,30.26L34.35,30.26
	c0-0.58,0-1.16,0-1.75c-0.01-0.97-0.01-0.95-0.98-0.9c-0.34,0.02-0.44,0.14-0.44,0.47c0.01,1.4,0.01,2.8,0.01,4.19
	c0,0.7,0.01,0.7,0.73,0.68c0.07,0,0.14,0,0.21,0c0.44,0,0.47-0.02,0.47-0.48C34.35,31.72,34.35,30.99,34.35,30.26z"/>
</svg>
